<svg width="16" height="13" viewBox="0 0 16 13" fill="none" xmlns="http://www.w3.org/2000/svg">
    <path d="M13 12.5H10.375C10.1562 12.5 10 12.3438 10 12.125V10.875C10 10.6875 10.1562 10.5 10.375 10.5H13C13.5312 10.5 14 10.0625 14 9.5V3.5C14 2.96875 13.5312 2.5 13 2.5H10.375C10.1562 2.5 10 2.34375 10 2.125V0.875C10 0.6875 10.1562 0.5 10.375 0.5H13C14.6562 0.5 16 1.84375 16 3.5V9.5C16 11.1562 14.6562 12.5 13 12.5ZM11.5312 6.21875C11.8125 6.53125 11.8125 7 11.5312 7.28125L6.28125 12.5312C5.8125 13 5 12.6875 5 12V9H0.75C0.3125 9 0 8.6875 0 8.25V5.25C0 4.84375 0.3125 4.5 0.75 4.5H5V1.5C5 0.84375 5.8125 0.5 6.28125 0.96875L11.5312 6.21875Z" fill="white"/>
</svg>
