<svg width="21" height="20" viewBox="0 0 21 20" fill="none" xmlns="http://www.w3.org/2000/svg">
    <path d="M0.75 4.1875C0.328125 4.1875 0 3.85938 0 3.4375V1.5625C0 1.1875 0.328125 0.8125 0.75 0.8125H20.25C20.625 0.8125 21 1.1875 21 1.5625V3.4375C21 3.85938 20.625 4.1875 20.25 4.1875H0.75ZM0.75 11.6875C0.328125 11.6875 0 11.3594 0 10.9375V9.0625C0 8.6875 0.328125 8.3125 0.75 8.3125H20.25C20.625 8.3125 21 8.6875 21 9.0625V10.9375C21 11.3594 20.625 11.6875 20.25 11.6875H0.75ZM0.75 19.1875C0.328125 19.1875 0 18.8594 0 18.4375V16.5625C0 16.1875 0.328125 15.8125 0.75 15.8125H20.25C20.625 15.8125 21 16.1875 21 16.5625V18.4375C21 18.8594 20.625 19.1875 20.25 19.1875H0.75Z" fill="#ADB5BD"/>
</svg>
