<svg width="21" height="20" viewBox="0 0 21 20" fill="none" xmlns="http://www.w3.org/2000/svg">
    <path d="M0.75 4.18774C0.328125 4.18774 0 3.85962 0 3.43774V1.56274C0 1.18774 0.328125 0.812744 0.75 0.812744H20.25C20.625 0.812744 21 1.18774 21 1.56274V3.43774C21 3.85962 20.625 4.18774 20.25 4.18774H0.75ZM0.75 11.6877C0.328125 11.6877 0 11.3596 0 10.9377V9.06274C0 8.68774 0.328125 8.31274 0.75 8.31274H20.25C20.625 8.31274 21 8.68774 21 9.06274V10.9377C21 11.3596 20.625 11.6877 20.25 11.6877H0.75ZM0.75 19.1877C0.328125 19.1877 0 18.8596 0 18.4377V16.5627C0 16.1877 0.328125 15.8127 0.75 15.8127H20.25C20.625 15.8127 21 16.1877 21 16.5627V18.4377C21 18.8596 20.625 19.1877 20.25 19.1877H0.75Z" fill="#3D8BFD"/>
</svg>
