<svg width="25" height="24" viewBox="0 0 25 24" fill="none" xmlns="http://www.w3.org/2000/svg">
    <path d="M24.125 12C24.125 18.4219 18.875 23.625 12.5 23.625C6.07812 23.625 0.875 18.4219 0.875 12C0.875 5.625 6.07812 0.375 12.5 0.375C18.875 0.375 24.125 5.625 24.125 12ZM11.1406 18.1875L19.7656 9.5625C20.0469 9.28125 20.0469 8.76562 19.7656 8.48438L18.6875 7.45312C18.4062 7.125 17.9375 7.125 17.6562 7.45312L10.625 14.4844L7.29688 11.2031C7.01562 10.875 6.54688 10.875 6.26562 11.2031L5.1875 12.2344C4.90625 12.5156 4.90625 13.0312 5.1875 13.3125L10.0625 18.1875C10.3438 18.4688 10.8594 18.4688 11.1406 18.1875Z" fill="#20C997"/>
</svg>
