<svg width="17" height="14" viewBox="0 0 17 14" fill="none" xmlns="http://www.w3.org/2000/svg">
    <path d="M16.0312 7.53125L10.7812 12.7812C10.3125 13.25 9.5 12.9375 9.5 12.25V9.25H5.25C4.8125 9.25 4.5 8.9375 4.5 8.5V5.5C4.5 5.09375 4.8125 4.75 5.25 4.75H9.5V1.75C9.5 1.09375 10.2812 0.75 10.7812 1.21875L16.0312 6.46875C16.3125 6.78125 16.3125 7.25 16.0312 7.53125ZM6.5 12.625C6.5 12.8438 6.3125 13 6.125 13H3.5C1.84375 13 0.5 11.6562 0.5 10V4C0.5 2.34375 1.84375 1 3.5 1H6.125C6.3125 1 6.5 1.1875 6.5 1.375V2.625C6.5 2.84375 6.3125 3 6.125 3H3.5C2.9375 3 2.5 3.46875 2.5 4V10C2.5 10.5625 2.9375 11 3.5 11H6.125C6.3125 11 6.5 11.1875 6.5 11.375V12.625Z" fill="#6EA8FE"/>
</svg>
