<svg width="16" height="16" viewBox="0 0 16 16" fill="none" xmlns="http://www.w3.org/2000/svg">
    <path d="M15.75 8C15.75 12.2812 12.25 15.75 8 15.75C6.15625 15.7812 4.4375 15.125 3.125 14.0625C2.78125 13.7812 2.75 13.25 3.0625 12.9375L3.40625 12.5938C3.6875 12.3125 4.125 12.2812 4.40625 12.5312C5.40625 13.3125 6.625 13.75 8 13.75C11.1562 13.75 13.75 11.1875 13.75 8C13.75 4.84375 11.1562 2.25 8 2.25C6.46875 2.25 5.0625 2.84375 4.03125 3.8125L5.625 5.40625C5.9375 5.71875 5.71875 6.25 5.28125 6.25H0.75C0.46875 6.25 0.25 6.03125 0.25 5.75V1.21875C0.25 0.78125 0.78125 0.5625 1.09375 0.875L2.625 2.40625C4.03125 1.09375 5.90625 0.25 8 0.25C12.25 0.25 15.7188 3.71875 15.75 8ZM10.0938 10.4688C9.8125 10.7812 9.34375 10.8438 9.03125 10.5938L7 9V4.75C7 4.34375 7.3125 4 7.75 4H8.25C8.65625 4 9 4.34375 9 4.75V8.03125L10.25 9.03125C10.5938 9.28125 10.6562 9.75 10.375 10.0625L10.0938 10.4688Z" fill="#6EA8FE"/>
</svg>
