<svg width="36" height="36" viewBox="0 0 36 36" fill="none" xmlns="http://www.w3.org/2000/svg">
    <g clip-path="url(#clip0_601_3794)">
        <path d="M17.999 36.0005C27.9404 36.0005 36 27.9419 36 18.0002C36 8.05867 27.9404 0 17.999 0C8.05864 0 0 8.05867 0 18.0002C0 27.9419 8.05864 36.0005 17.999 36.0005Z" fill="#C02727"/>
        <path d="M14.2103 25.2959H10.884C10.7401 24.5999 10.5977 23.901 10.4553 23.2062C10.313 22.5093 10.1621 21.8627 10.0043 21.2678C9.88927 20.828 9.77609 20.4535 9.665 20.1452C9.55339 19.8387 9.41597 19.5766 9.25325 19.3595C9.09749 19.1427 8.91144 18.9833 8.69364 18.8778C8.47488 18.7738 8.21743 18.7206 7.92076 18.7206V23.1757C7.92076 23.4047 7.95149 23.6109 8.00904 23.7944C8.06905 23.9769 8.16882 24.1191 8.31166 24.2206C8.38907 24.2749 8.52203 24.3322 8.7095 24.3923C8.89506 24.4532 9.04939 24.4895 9.16794 24.5037V25.2959H4.47828V24.5037C4.5805 24.4981 4.7308 24.4758 4.92825 24.4389C5.1257 24.4002 5.26857 24.356 5.35936 24.3013C5.50573 24.2143 5.60591 24.0799 5.66545 23.9008C5.72204 23.7225 5.75173 23.5102 5.75173 23.2666V13.0792C5.75173 12.8425 5.72554 12.6416 5.67539 12.4806C5.62384 12.3171 5.51908 12.1742 5.35936 12.0538C5.24177 11.9663 5.08701 11.8865 4.89551 11.8156C4.70302 11.7444 4.56612 11.7017 4.47828 11.6888V10.8973H9.16794V11.6888C9.04096 11.7017 8.89208 11.7363 8.71545 11.7901C8.54089 11.8441 8.40692 11.8952 8.31166 11.9416C8.15386 12.0301 8.04872 12.1709 7.99613 12.3631C7.94656 12.5555 7.92076 12.7617 7.92076 12.9772V17.7658H8.3186C8.48229 17.7658 8.65347 17.7272 8.82957 17.6492C9.00819 17.5725 9.16794 17.4149 9.3118 17.1782C9.60447 16.6972 9.82574 16.2118 9.97263 15.7214C10.1169 15.2324 10.2435 14.7294 10.3496 14.2155C10.4721 13.648 10.5808 13.1642 10.6786 12.7701C10.7778 12.373 10.9708 11.9416 11.2604 11.4755C11.4019 11.2383 11.5775 11.0511 11.7864 10.913C11.9927 10.7741 12.2209 10.703 12.468 10.703C12.8758 10.703 13.1973 10.877 13.4338 11.2221C13.671 11.5668 13.7881 12.0071 13.7881 12.5404C13.7881 13.1291 13.6889 13.5871 13.49 13.916C13.289 14.2448 13.0365 14.4072 12.7244 14.4072C12.5305 14.4072 12.339 14.3135 12.1535 14.123C11.967 13.9347 11.7466 13.5679 11.4907 13.0281C11.3676 13.2382 11.2615 13.5609 11.1692 13.9959C11.0789 14.434 10.9936 14.8138 10.9152 15.1377C10.7584 15.8075 10.6007 16.318 10.4519 16.6668C10.299 17.0147 10.1289 17.3026 9.93091 17.5349V17.7159C10.5019 17.966 10.9747 18.3782 11.3478 18.9541C11.7233 19.5289 12.0275 20.2297 12.2596 21.0539C12.3619 21.4122 12.4665 21.7939 12.5752 22.197C12.6823 22.5989 12.7775 22.9422 12.8589 23.2255C12.9845 23.6657 13.1094 23.9567 13.2291 24.0992C13.3491 24.2402 13.4482 24.3212 13.5257 24.3416C13.6199 24.3763 13.7355 24.4076 13.8705 24.4389C14.0079 24.4691 14.12 24.4895 14.2103 24.5037V25.2959Z" fill="#FEFEFE"/>
        <path d="M18.5997 14.6089C18.5997 14.175 18.5268 13.8337 18.3796 13.5827C18.2317 13.3347 18.0391 13.2099 17.805 13.2099C17.5793 13.2099 17.3963 13.3116 17.2568 13.5177C17.1184 13.7218 17.0489 13.9893 17.0489 14.3202C17.0489 14.6064 17.1144 14.9311 17.242 15.2937C17.369 15.6571 17.5685 16.097 17.8353 16.6157C18.0973 16.3544 18.2932 16.0493 18.4142 15.7008C18.5393 15.3536 18.5997 14.9894 18.5997 14.6089ZM18.6384 21.7192C18.3458 21.2184 18.0064 20.6373 17.6184 19.9747C17.2315 19.3129 16.8714 18.6806 16.5384 18.0851C16.3544 18.3412 16.2214 18.6417 16.1391 18.9847C16.0562 19.33 16.0161 19.675 16.0161 20.0206C16.0161 20.6792 16.1649 21.2147 16.4596 21.6309C16.7543 22.0457 17.1304 22.2539 17.5847 22.2539C17.7981 22.2539 17.9816 22.2161 18.1365 22.1372C18.2947 22.0625 18.4609 21.9209 18.6384 21.7192ZM22.6375 23.2979H19.5751C19.4897 23.1649 19.3846 22.9914 19.2516 22.7767C19.1202 22.5599 19.0056 22.3698 18.9124 22.2007C18.5442 22.6854 18.1781 23.0317 17.812 23.2422C17.4458 23.4529 17.0549 23.5583 16.6431 23.5583C15.9943 23.5583 15.4605 23.3081 15.0457 22.809C14.63 22.3094 14.4221 21.6595 14.4221 20.858C14.4221 20.4572 14.4618 20.1141 14.5342 19.8274C14.6092 19.5393 14.7312 19.2526 14.8969 18.9671C15.0576 18.6885 15.2546 18.4412 15.4912 18.221C15.7254 18.0017 15.9943 17.7956 16.2865 17.6017C15.9754 17.0375 15.7561 16.5575 15.6341 16.1627C15.5111 15.7666 15.4485 15.3612 15.4485 14.9463C15.4485 14.2344 15.6569 13.648 16.0746 13.1843C16.4904 12.7225 16.9884 12.4915 17.5704 12.4915C18.1107 12.4915 18.5512 12.6736 18.8875 13.0395C19.2228 13.4073 19.3916 13.8902 19.3916 14.494C19.3916 15.0175 19.2924 15.4867 19.0904 15.8985C18.8896 16.3127 18.5541 16.7173 18.0838 17.1114C18.4624 17.8033 18.7566 18.3249 18.9624 18.6742C19.1703 19.0209 19.4441 19.4806 19.7869 20.0499C20.0067 19.5892 20.1715 19.1655 20.281 18.7798C20.3911 18.393 20.4443 18.0695 20.4443 17.8068C20.4443 17.6584 20.3674 17.5376 20.2121 17.4474C20.0583 17.355 19.841 17.2707 19.5588 17.1909V16.6268H22.4703V17.1909C22.1543 17.2298 21.9207 17.2851 21.7699 17.3531C21.6206 17.4235 21.4712 17.5639 21.3243 17.7773C21.2628 17.8663 21.185 18.0233 21.0937 18.2485C21.0004 18.4747 20.9146 18.69 20.8292 18.8972C20.7291 19.1497 20.6228 19.4154 20.5068 19.6932C20.3927 19.9705 20.2528 20.2594 20.0891 20.5616C20.4105 21.0962 20.674 21.4946 20.8808 21.7599C21.0862 22.0234 21.2549 22.2057 21.3879 22.305C21.5371 22.4195 21.7257 22.5093 21.955 22.5735C22.1847 22.6425 22.4123 22.6854 22.6375 22.7052V23.2979Z" fill="#FEFEFE"/>
        <path d="M29.1062 21.1301C29.1062 20.0868 28.9286 19.2896 28.5714 18.7367C28.2152 18.1843 27.7032 17.9087 27.0344 17.9087C26.9562 17.9087 26.8559 17.9131 26.7324 17.9248C26.6079 17.9333 26.5136 17.9432 26.4541 17.9488V23.4787C26.4898 23.7426 26.6044 23.9586 26.7939 24.1236C26.9824 24.2891 27.2121 24.3721 27.479 24.3721C27.9651 24.3721 28.3581 24.0864 28.6572 23.5129C28.9574 22.9422 29.1062 22.1467 29.1062 21.1301ZM31.5216 20.9832C31.5216 21.7 31.4265 22.3369 31.2369 22.8911C31.0475 23.4456 30.7904 23.9063 30.4621 24.2709C30.146 24.6164 29.7958 24.8731 29.4158 25.0427C29.0348 25.2108 28.637 25.2959 28.2271 25.2959H23.0126V24.5048C23.1311 24.4848 23.286 24.4556 23.485 24.4184C23.6788 24.3823 23.8148 24.3355 23.8931 24.2818C24.0395 24.1871 24.1408 24.0548 24.1978 23.885C24.2554 23.7173 24.2841 23.4998 24.2841 23.2358V13.0792C24.2841 12.8502 24.2578 12.6471 24.2082 12.4749C24.1566 12.303 24.0525 12.1596 23.8931 12.0428C23.7771 11.9632 23.6277 11.8883 23.4402 11.8201C23.2522 11.7526 23.1118 11.7092 23.0126 11.6888V10.8961H30.7573V15.0172H30.28C30.0964 14.2344 29.8702 13.5406 29.5988 12.9323C29.329 12.3261 29.0873 11.9962 28.876 11.9416C28.746 11.9004 28.5933 11.8706 28.4256 11.8509C28.2549 11.8303 28.0793 11.8201 27.8998 11.8201H26.4541V16.9459C26.6397 16.9391 26.8499 16.9267 27.0762 16.9081C27.3048 16.8937 27.5247 16.8832 27.736 16.8832C28.2807 16.8832 28.7713 16.9549 29.2178 17.0976C29.6609 17.2399 30.0577 17.4758 30.4099 17.8068C30.7507 18.1257 31.0211 18.5465 31.2206 19.0703C31.4215 19.595 31.5216 20.2322 31.5216 20.9832Z" fill="#FEFEFE"/>
    </g>
    <defs>
        <clipPath id="clip0_601_3794">
            <rect width="36" height="36.0005" fill="white"/>
        </clipPath>
    </defs>
</svg>
