<svg xmlns="http://www.w3.org/2000/svg" width="36" height="36" viewBox="0 0 36 36" fill="none">
    <g clip-path="url(#clip0_528_3996)">
        <path d="M17.9991 35C27.3882 35 35 27.3892 35 18C35 8.61086 27.3882 1 17.9991 1C8.61094 1 1 8.61086 1 18C1 27.3892 8.61094 35 17.9991 35Z" fill="#C02727"/>
        <path d="M14.4209 24.8902H11.2793C11.1434 24.2329 11.009 23.5729 10.8744 22.9167C10.7401 22.2584 10.5976 21.6478 10.4485 21.086C10.3399 20.6707 10.233 20.3169 10.1281 20.0257C10.0227 19.7363 9.89287 19.4887 9.73919 19.2837C9.59209 19.079 9.41637 18.9284 9.21067 18.8288C9.00406 18.7306 8.76091 18.6803 8.48072 18.6803V22.8878C8.48072 23.1042 8.50975 23.2988 8.56411 23.4721C8.62078 23.6446 8.71501 23.7788 8.84991 23.8747C8.92302 23.926 9.04859 23.9801 9.22565 24.0368C9.4009 24.0944 9.54665 24.1286 9.65862 24.142V24.8902H5.22949V24.142C5.32604 24.1368 5.46799 24.1157 5.65447 24.0808C5.84095 24.0443 5.97588 24.0025 6.06163 23.9509C6.19987 23.8688 6.29448 23.7418 6.35071 23.5727C6.40416 23.4042 6.4322 23.2037 6.4322 22.9737V13.3524C6.4322 13.1289 6.40747 12.9391 6.3601 12.787C6.31142 12.6326 6.21248 12.4977 6.06163 12.384C5.95057 12.3014 5.80441 12.226 5.62355 12.159C5.44175 12.0917 5.31246 12.0514 5.22949 12.0393V11.2917H9.65862V12.0393C9.53869 12.0514 9.39809 12.0841 9.23127 12.1349C9.06641 12.1859 8.93987 12.2342 8.84991 12.278C8.70088 12.3616 8.60158 12.4945 8.55191 12.6761C8.50509 12.8578 8.48072 13.0525 8.48072 13.2561V17.7786H8.85647C9.01106 17.7786 9.17273 17.7421 9.33905 17.6684C9.50774 17.5961 9.65862 17.4471 9.79448 17.2236C10.0709 16.7694 10.2799 16.311 10.4186 15.8478C10.5549 15.386 10.6744 14.9109 10.7747 14.4255C10.8904 13.8896 10.993 13.4327 11.0853 13.0605C11.1791 12.6854 11.3613 12.278 11.6349 11.8378C11.7684 11.6138 11.9343 11.437 12.1316 11.3065C12.3265 11.1754 12.542 11.1083 12.7754 11.1083C13.1605 11.1083 13.4641 11.2726 13.6875 11.5985C13.9115 11.9241 14.0221 12.3398 14.0221 12.8435C14.0221 13.3995 13.9284 13.8321 13.7406 14.1427C13.5507 14.4532 13.3123 14.6066 13.0175 14.6066C12.8344 14.6066 12.6535 14.5181 12.4783 14.3382C12.3022 14.1603 12.0941 13.8139 11.8523 13.3041C11.7361 13.5026 11.6359 13.8073 11.5487 14.2182C11.4634 14.6319 11.3829 14.9906 11.3089 15.2965C11.1607 15.9291 11.0118 16.4112 10.8712 16.7406C10.7269 17.0692 10.5662 17.3411 10.3792 17.5605V17.7315C10.9184 17.9676 11.365 18.357 11.7174 18.9009C12.072 19.4437 12.3593 20.1055 12.5785 20.884C12.6751 21.2223 12.7739 21.5828 12.8766 21.9635C12.9777 22.3431 13.0677 22.6673 13.1445 22.9348C13.2631 23.3506 13.3811 23.6254 13.4941 23.7601C13.6075 23.8932 13.7011 23.9697 13.7743 23.9889C13.8633 24.0218 13.9724 24.0513 14.0999 24.0808C14.2297 24.1094 14.3356 24.1286 14.4209 24.142V24.8902Z" fill="#FEFEFE"/>
        <path d="M18.5664 14.7971C18.5664 14.3873 18.4975 14.065 18.3585 13.8279C18.2188 13.5937 18.0369 13.4758 17.8158 13.4758C17.6027 13.4758 17.4298 13.5719 17.298 13.7665C17.1674 13.9593 17.1017 14.2119 17.1017 14.5244C17.1017 14.7948 17.1636 15.1014 17.2841 15.4439C17.404 15.7871 17.5924 16.2025 17.8444 16.6923C18.0918 16.4456 18.2769 16.1575 18.3912 15.8283C18.5093 15.5004 18.5664 15.1564 18.5664 14.7971ZM18.6029 21.5123C18.3266 21.0393 18.006 20.4905 17.6396 19.8647C17.2742 19.2397 16.9341 18.6425 16.6196 18.0801C16.4458 18.322 16.3202 18.6058 16.2425 18.9297C16.1642 19.2558 16.1263 19.5817 16.1263 19.9081C16.1263 20.5301 16.2669 21.0358 16.5452 21.4289C16.8235 21.8206 17.1787 22.0172 17.6078 22.0172C17.8093 22.0172 17.9826 21.9816 18.1289 21.9071C18.2783 21.8365 18.4352 21.7028 18.6029 21.5123ZM22.3799 23.0032H19.4876C19.407 22.8776 19.3077 22.7138 19.1821 22.511C19.0579 22.3062 18.9497 22.1267 18.8617 21.967C18.5139 22.4248 18.1682 22.7518 17.8224 22.9507C17.4766 23.1496 17.1074 23.2492 16.7185 23.2492C16.1057 23.2492 15.6015 23.0129 15.2098 22.5415C14.8172 22.0697 14.6208 21.4559 14.6208 20.6989C14.6208 20.3204 14.6584 19.9964 14.7268 19.7256C14.7976 19.4535 14.9128 19.1828 15.0693 18.9131C15.221 18.65 15.4071 18.4164 15.6306 18.2084C15.8518 18.0013 16.1057 17.8067 16.3817 17.6236C16.0878 17.0907 15.8807 16.6375 15.7655 16.2645C15.6493 15.8904 15.5903 15.5076 15.5903 15.1157C15.5903 14.4434 15.7871 13.8896 16.1816 13.4517C16.5742 13.0155 17.0446 12.7974 17.5943 12.7974C18.1045 12.7974 18.5205 12.9693 18.8382 13.3149C19.1549 13.6623 19.3143 14.1184 19.3143 14.6886C19.3143 15.1829 19.2205 15.6261 19.0298 16.0151C18.8401 16.4063 18.5233 16.7883 18.0791 17.1606C18.4367 17.814 18.7145 18.3066 18.9089 18.6365C19.1052 18.9639 19.3638 19.3981 19.6876 19.9358C19.8952 19.5006 20.0508 19.1005 20.1543 18.7362C20.2582 18.371 20.3085 18.0654 20.3085 17.8173C20.3085 17.6772 20.2359 17.563 20.0892 17.4778C19.944 17.3906 19.7387 17.3109 19.4721 17.2356V16.7028H22.2219V17.2356C21.9235 17.2724 21.7029 17.3245 21.5605 17.3888C21.4194 17.4553 21.2783 17.5879 21.1396 17.7894C21.0815 17.8735 21.008 18.0217 20.9218 18.2345C20.8337 18.4481 20.7526 18.6514 20.672 18.8471C20.5774 19.0856 20.4771 19.3365 20.3675 19.5989C20.2598 19.8607 20.1277 20.1336 19.973 20.419C20.2766 20.9239 20.5254 21.3001 20.7208 21.5507C20.9147 21.7995 21.074 21.9718 21.1996 22.0655C21.3406 22.1736 21.5187 22.2584 21.7352 22.3192C21.9521 22.3842 22.1671 22.4248 22.3799 22.4435V23.0032Z" fill="#FEFEFE"/>
        <path d="M28.4892 20.956C28.4892 19.9706 28.3214 19.2177 27.9841 18.6956C27.6477 18.1738 27.1641 17.9136 26.5325 17.9136C26.4586 17.9136 26.3638 17.9177 26.2473 17.9288C26.1296 17.9368 26.0405 17.9461 25.9844 17.9514V23.174C26.0181 23.4233 26.1263 23.6273 26.3053 23.7831C26.4833 23.9394 26.7002 24.0178 26.9523 24.0178C27.4114 24.0178 27.7826 23.7479 28.0651 23.2064C28.3486 22.6673 28.4892 21.916 28.4892 20.956ZM30.7704 20.8173C30.7704 21.4942 30.6805 22.0957 30.5015 22.6191C30.3226 23.1427 30.0798 23.5779 29.7697 23.9222C29.4712 24.2485 29.1404 24.491 28.7815 24.6511C28.4217 24.8099 28.046 24.8903 27.6589 24.8903H22.7341V24.1431C22.846 24.1242 22.9923 24.0966 23.1802 24.0615C23.3632 24.0274 23.4918 23.9832 23.5657 23.9325C23.7039 23.8431 23.7996 23.7181 23.8534 23.5577C23.9078 23.3994 23.9349 23.194 23.9349 22.9446V13.3524C23.9349 13.1362 23.9101 12.9443 23.8633 12.7817C23.8145 12.6194 23.7162 12.4839 23.5657 12.3736C23.4561 12.2984 23.315 12.2277 23.138 12.1633C22.9604 12.0996 22.8278 12.0586 22.7341 12.0393V11.2906H30.0485V15.1828H29.5978C29.4244 14.4434 29.2107 13.7882 28.9544 13.2137C28.6996 12.6411 28.4713 12.3296 28.2718 12.278C28.149 12.2391 28.0047 12.211 27.8464 12.1923C27.6852 12.1729 27.5193 12.1633 27.3498 12.1633H25.9844V17.0042C26.1596 16.9978 26.3582 16.9861 26.5719 16.9686C26.7879 16.9549 26.9955 16.945 27.1951 16.945C27.7096 16.945 28.1728 17.0127 28.5946 17.1475C29.0131 17.2819 29.3878 17.5047 29.7204 17.8173C30.0423 18.1185 30.2977 18.5159 30.4861 19.0106C30.6759 19.5061 30.7704 20.1079 30.7704 20.8173Z" fill="#FEFEFE"/>
    </g>
    <rect x="0.5" y="0.5" width="35" height="35" rx="17.5" stroke="#FEFEFD"/>
    <defs>
        <clipPath id="clip0_528_3996">
            <rect x="1" y="1" width="34" height="34" rx="17" fill="white"/>
        </clipPath>
    </defs>
</svg>