<svg width="16" height="16" viewBox="0 0 16 16" fill="none" xmlns="http://www.w3.org/2000/svg">
    <path d="M14 6C15.0938 6 16 6.90625 16 8V11.5C16 11.7812 15.75 12 15.5 12H14V15C14 15.5625 13.5312 16 13 16H3C2.4375 16 2 15.5625 2 15V12H0.5C0.21875 12 0 11.7812 0 11.5V8C0 6.90625 0.875 6 2 6V1C2 0.46875 2.4375 0 3 0H11.5625C11.8438 0 12.0938 0.125 12.2812 0.3125L13.6875 1.71875C13.875 1.90625 14 2.15625 14 2.4375V6ZM12 14V11H4V14H12ZM12 7V4H10.5C10.2188 4 10 3.78125 10 3.5V2H4V7H12ZM13.5 9.25C13.9062 9.25 14.25 8.9375 14.25 8.5C14.25 8.09375 13.9062 7.75 13.5 7.75C13.0625 7.75 12.75 8.09375 12.75 8.5C12.75 8.9375 13.0625 9.25 13.5 9.25Z" fill="#6EA8FE"/>
</svg>
