<svg width="13" height="12" viewBox="0 0 13 12" fill="none" xmlns="http://www.w3.org/2000/svg">
    <path d="M8.5625 6L11.6875 9.15625C12.0938 9.53125 12.0938 10.1562 11.6875 10.5312L11 11.2188C10.625 11.625 10 11.625 9.625 11.2188L6.5 8.09375L3.34375 11.2188C2.96875 11.625 2.34375 11.625 1.96875 11.2188L1.28125 10.5312C0.875 10.1562 0.875 9.53125 1.28125 9.15625L4.40625 6L1.28125 2.875C0.875 2.5 0.875 1.875 1.28125 1.5L1.96875 0.8125C2.34375 0.40625 2.96875 0.40625 3.34375 0.8125L6.5 3.9375L9.625 0.8125C10 0.40625 10.625 0.40625 11 0.8125L11.6875 1.5C12.0938 1.875 12.0938 2.5 11.6875 2.875L8.5625 6Z" fill="white"/>
</svg>
