<svg width="16" height="16" viewBox="0 0 16 16" fill="none" xmlns="http://www.w3.org/2000/svg">
    <path d="M15.2188 9.875C15.375 9.96875 15.4375 10.1562 15.4062 10.3125C15.0312 11.4375 14.4688 12.4375 13.6875 13.2812C13.5625 13.4062 13.375 13.4375 13.2188 13.3438L11.875 12.5938C11.3125 13.0625 10.6875 13.4375 10 13.6875V15.2188C10 15.375 9.875 15.5312 9.6875 15.5938C8.59375 15.8125 7.4375 15.8438 6.28125 15.5938C6.125 15.5312 6 15.375 6 15.2188V13.6875C5.28125 13.4375 4.65625 13.0625 4.09375 12.5938L2.75 13.3438C2.59375 13.4375 2.40625 13.4062 2.28125 13.2812C1.53125 12.4375 0.9375 11.4375 0.59375 10.3125C0.53125 10.1562 0.59375 9.96875 0.75 9.875L2.09375 9.125C1.96875 8.375 1.96875 7.65625 2.09375 6.90625L0.75 6.15625C0.59375 6.0625 0.53125 5.875 0.59375 5.71875C0.9375 4.59375 1.53125 3.59375 2.28125 2.75C2.40625 2.625 2.59375 2.59375 2.75 2.6875L4.09375 3.46875C4.65625 2.96875 5.28125 2.59375 6 2.34375V0.8125C6 0.65625 6.09375 0.5 6.28125 0.46875C7.375 0.21875 8.53125 0.1875 9.6875 0.46875C9.875 0.5 10 0.65625 10 0.8125V2.34375C10.6875 2.59375 11.3125 2.96875 11.875 3.4375L13.2188 2.6875C13.375 2.59375 13.5625 2.625 13.6875 2.75C14.4375 3.59375 15.0312 4.59375 15.375 5.71875C15.4375 5.875 15.375 6.0625 15.2188 6.15625L13.875 6.90625C14.0312 7.65625 14.0312 8.375 13.875 9.125L15.2188 9.875ZM8 10.5C9.375 10.5 10.5 9.40625 10.5 8C10.5 6.625 9.375 5.5 8 5.5C6.59375 5.5 5.5 6.625 5.5 8C5.5 9.40625 6.59375 10.5 8 10.5Z" fill="#6EA8FE"/>
</svg>
