<svg width="24" height="24" viewBox="0 0 24 24" fill="none" xmlns="http://www.w3.org/2000/svg">
    <rect width="24" height="24" rx="12" fill="#FD9843"/>
    <path d="M18.5898 8.66016L17.332 9.91797C17.2227 10.0273 17.0039 10.0273 16.8672 9.91797L13.832 6.88281C13.7227 6.74609 13.7227 6.52734 13.832 6.41797L15.0898 5.16016C15.6094 4.64062 16.457 4.64062 16.9492 5.16016L18.5898 6.80078C19.1094 7.29297 19.1094 8.14062 18.5898 8.66016ZM12.7656 7.48438C12.875 7.375 13.0938 7.375 13.2305 7.48438L16.2656 10.5195C16.4023 10.6562 16.4023 10.875 16.2656 10.9844L9.07422 18.1758L5.76562 18.75C5.30078 18.832 4.91797 18.4492 5 17.9844L5.57422 14.6758L12.7656 7.48438ZM7.40625 16.3438V15.0312H6.39453L6.09375 16.8086L6.94141 17.6562L8.71875 17.3555V16.3438H7.40625Z" fill="white"/>
</svg>
