<svg width="24" height="24" viewBox="0 0 24 24" fill="none" xmlns="http://www.w3.org/2000/svg">
    <rect width="24" height="24" rx="12" fill="#3D8BFD"/>
    <path d="M16.875 10.4375C17.3398 10.4375 17.75 10.8477 17.75 11.3125V12.1875C17.75 12.6797 17.3398 13.0625 16.875 13.0625H12.9375V17C12.9375 17.4922 12.5273 17.875 12.0625 17.875H11.1875C10.6953 17.875 10.3125 17.4922 10.3125 17V13.0625H6.375C5.88281 13.0625 5.5 12.6797 5.5 12.1875V11.3125C5.5 10.8477 5.88281 10.4375 6.375 10.4375H10.3125V6.5C10.3125 6.03516 10.6953 5.625 11.1875 5.625H12.0625C12.5273 5.625 12.9375 6.03516 12.9375 6.5V10.4375H16.875Z" fill="white"/>
</svg>
