<svg width="24" height="24" viewBox="0 0 24 24" fill="none" xmlns="http://www.w3.org/2000/svg">
    <rect width="24" height="24" rx="12" fill="#E35D6A"/>
    <path d="M12 4.96875C15.7461 4.96875 18.7812 8.00391 18.7812 11.75C18.7812 15.4961 15.7461 18.5312 12 18.5312C8.25391 18.5312 5.21875 15.4961 5.21875 11.75C5.21875 8.00391 8.25391 4.96875 12 4.96875ZM14.5156 13.5273C14.5703 13.4727 14.625 13.3633 14.625 13.2539C14.625 13.1172 14.543 13.0078 14.4609 12.9258L12.875 11.75V7.8125C12.875 7.59375 12.6562 7.375 12.4375 7.375H11.5625C11.3164 7.375 11.125 7.59375 11.125 7.8125V12.0781C11.125 12.4336 11.2617 12.7344 11.5352 12.9258L13.3672 14.293C13.4219 14.3477 13.5312 14.4023 13.6133 14.4023C13.7773 14.4023 13.8867 14.3203 13.9688 14.2109L14.5156 13.5273Z" fill="white"/>
</svg>
