<svg width="16" height="16" viewBox="0 0 16 16" fill="none" xmlns="http://www.w3.org/2000/svg">
    <g clip-path="url(#clip0_1357_939)">
        <rect width="16" height="16" fill="white" fill-opacity="0.01"/>
        <path fill-rule="evenodd" clip-rule="evenodd" d="M7.64858 4.64708C7.69503 4.60051 7.75021 4.56357 7.81095 4.53836C7.8717 4.51316 7.93682 4.50018 8.00258 4.50018C8.06835 4.50018 8.13347 4.51316 8.19422 4.53836C8.25496 4.56357 8.31014 4.60051 8.35658 4.64708L14.3566 10.6471C14.4505 10.741 14.5032 10.8683 14.5032 11.0011C14.5032 11.1339 14.4505 11.2612 14.3566 11.3551C14.2627 11.449 14.1354 11.5017 14.0026 11.5017C13.8698 11.5017 13.7425 11.449 13.6486 11.3551L8.00258 5.70808L2.35658 11.3551C2.2627 11.449 2.13536 11.5017 2.00258 11.5017C1.86981 11.5017 1.74247 11.449 1.64858 11.3551C1.5547 11.2612 1.50195 11.1339 1.50195 11.0011C1.50195 10.8683 1.5547 10.741 1.64858 10.6471L7.64858 4.64708Z" fill="#333333"/>
    </g>
    <defs>
        <clipPath id="clip0_1357_939">
            <rect width="16" height="16" fill="white"/>
        </clipPath>
    </defs>
</svg>
