<svg width="14" height="14" viewBox="0 0 14 14" fill="none" xmlns="http://www.w3.org/2000/svg">
    <g clip-path="url(#clip0_585_859)">
        <rect width="14" height="14" fill="white" fill-opacity="0.01"/>
        <path fill-rule="evenodd" clip-rule="evenodd" d="M6.69227 4.06538C6.73291 4.02463 6.78119 3.99231 6.83434 3.97025C6.88749 3.9482 6.94447 3.93684 7.00202 3.93684C7.05956 3.93684 7.11654 3.9482 7.1697 3.97025C7.22285 3.99231 7.27113 4.02463 7.31177 4.06538L12.5618 9.31538C12.6439 9.39753 12.6901 9.50895 12.6901 9.62513C12.6901 9.7413 12.6439 9.85273 12.5618 9.93488C12.4796 10.017 12.3682 10.0632 12.252 10.0632C12.1358 10.0632 12.0244 10.017 11.9423 9.93488L7.00202 4.99375L2.06177 9.93488C1.97962 10.017 1.8682 10.0632 1.75202 10.0632C1.63584 10.0632 1.52442 10.017 1.44227 9.93488C1.36012 9.85273 1.31396 9.7413 1.31396 9.62513C1.31396 9.50895 1.36012 9.39753 1.44227 9.31538L6.69227 4.06538Z" fill="#212529"/>
    </g>
    <defs>
        <clipPath id="clip0_585_859">
            <rect width="14" height="14" fill="white"/>
        </clipPath>
    </defs>
</svg>