<svg width="16" height="16" viewBox="0 0 16 16" fill="none" xmlns="http://www.w3.org/2000/svg">
    <g clip-path="url(#clip0_1357_47)">
        <rect width="16" height="16" fill="white" fill-opacity="0.01"/>
        <path fill-rule="evenodd" clip-rule="evenodd" d="M1.64836 4.64708C1.6948 4.60051 1.74998 4.56357 1.81073 4.53836C1.87147 4.51316 1.93659 4.50018 2.00236 4.50018C2.06813 4.50018 2.13325 4.51316 2.19399 4.53836C2.25474 4.56357 2.30991 4.60051 2.35636 4.64708L8.00236 10.2941L13.6484 4.64708C13.6948 4.60059 13.75 4.56371 13.8108 4.53855C13.8715 4.51339 13.9366 4.50044 14.0024 4.50044C14.0681 4.50044 14.1332 4.51339 14.1939 4.53855C14.2547 4.56371 14.3099 4.60059 14.3564 4.64708C14.4028 4.69356 14.4397 4.74875 14.4649 4.80949C14.49 4.87023 14.503 4.93533 14.503 5.00108C14.503 5.06682 14.49 5.13192 14.4649 5.19266C14.4397 5.2534 14.4028 5.30859 14.3564 5.35508L8.35636 11.3551C8.30991 11.4016 8.25474 11.4386 8.19399 11.4638C8.13325 11.489 8.06813 11.502 8.00236 11.502C7.93659 11.502 7.87147 11.489 7.81073 11.4638C7.74998 11.4386 7.6948 11.4016 7.64836 11.3551L1.64836 5.35508C1.6018 5.30863 1.56485 5.25346 1.53965 5.19271C1.51444 5.13197 1.50146 5.06684 1.50146 5.00108C1.50146 4.93531 1.51444 4.87019 1.53965 4.80944C1.56485 4.7487 1.6018 4.69352 1.64836 4.64708Z" fill="#333333"/>
    </g>
    <defs>
        <clipPath id="clip0_1357_47">
            <rect width="16" height="16" fill="white"/>
        </clipPath>
    </defs>
</svg>