<svg width="14" height="15" viewBox="0 0 14 15" fill="none" xmlns="http://www.w3.org/2000/svg">
    <path d="M1.0625 9.0625L0.375 8.375C0.09375 8.0625 0.09375 7.59375 0.375 7.3125L6.46875 1.21875C6.75 0.9375 7.21875 0.9375 7.5 1.21875L13.5938 7.3125C13.875 7.59375 13.875 8.0625 13.5938 8.375L12.9062 9.0625C12.5938 9.34375 12.125 9.34375 11.8125 9.03125L8.25 5.28125V14.25C8.25 14.6875 7.90625 15 7.5 15H6.5C6.0625 15 5.75 14.6875 5.75 14.25V5.28125L2.15625 9.0625C1.84375 9.34375 1.375 9.375 1.0625 9.0625Z" fill="#ADB5BD"/>
</svg>
